<svg width="32" height="32" viewBox="0 0 32 32" fill="none" xmlns="http://www.w3.org/2000/svg">
<path d="M18.2624 16L22.7888 11.4752C23.089 11.175 23.2577 10.7678 23.2577 10.3432C23.2577 9.91862 23.089 9.51143 22.7888 9.2112C22.4886 8.91098 22.0814 8.74231 21.6568 8.74231C21.2322 8.74231 20.825 8.91098 20.5248 9.2112L16 13.7376L11.4752 9.2112C11.175 8.91098 10.7678 8.74231 10.3432 8.74231C9.91862 8.74231 9.51143 8.91098 9.2112 9.2112C8.91098 9.51143 8.74231 9.91862 8.74231 10.3432C8.74231 10.7678 8.91098 11.175 9.2112 11.4752L13.7376 16L9.2112 20.5248C8.91098 20.825 8.74231 21.2322 8.74231 21.6568C8.74231 22.0814 8.91098 22.4886 9.2112 22.7888C9.51143 23.089 9.91862 23.2577 10.3432 23.2577C10.7678 23.2577 11.175 23.089 11.4752 22.7888L16 18.2624L20.5248 22.7888C20.825 23.089 21.2322 23.2577 21.6568 23.2577C22.0814 23.2577 22.4886 23.089 22.7888 22.7888C23.089 22.4886 23.2577 22.0814 23.2577 21.6568C23.2577 21.2322 23.089 20.825 22.7888 20.5248L18.2624 16ZM16 32C7.1632 32 0 24.8368 0 16C0 7.1632 7.1632 0 16 0C24.8368 0 32 7.1632 32 16C32 24.8368 24.8368 32 16 32Z" fill="white"/>
</svg>
